<svg xmlns="http://www.w3.org/2000/svg" xmlns:xlink="http://www.w3.org/1999/xlink" version="1.1" id="레이어_1" x="0px" y="0px" viewBox="0 0 59.2 24.6" style="enable-background:new 0 0 59.2 24.6;" xml:space="preserve">
<style type="text/css">
	.st0{fill:#FFB000;}
	.st1{fill:#FFFFFF;}
</style>
	<rect x="0" y="0" class="st0" width="59.2" height="24.6"/>
	<g>
		<path class="st1" d="M16.3,14.8c-0.1,1.5-0.7,2.7-1.7,3.5s-2.3,1.3-3.9,1.3c-1.1,0-2.1-0.3-3-0.8s-1.5-1.3-2-2.3S5,14.4,5,13.1    v-1.3c0-1.3,0.2-2.5,0.7-3.5s1.2-1.8,2-2.4S9.7,5,10.8,5c1.6,0,2.8,0.4,3.8,1.3s1.5,2.1,1.7,3.6h-2.5c-0.1-1-0.4-1.8-0.9-2.2    C12.5,7.2,11.8,7,10.8,7C9.8,7,8.9,7.4,8.4,8.2s-0.9,1.9-0.9,3.5v1.3c0,1.5,0.3,2.7,0.8,3.5c0.6,0.8,1.4,1.2,2.4,1.2    c1,0,1.7-0.2,2.2-0.7s0.8-1.2,0.9-2.2H16.3z"/>
		<path class="st1" d="M29.4,12.7c0,1.4-0.2,2.6-0.7,3.7s-1.2,1.9-2.1,2.4s-1.9,0.8-3.1,0.8c-1.2,0-2.2-0.3-3.1-0.8    s-1.6-1.4-2.1-2.4s-0.7-2.2-0.7-3.6V12c0-1.4,0.2-2.6,0.7-3.7s1.2-1.9,2.1-2.4S22.3,5,23.5,5s2.2,0.3,3.1,0.8s1.6,1.4,2.1,2.4    s0.7,2.3,0.7,3.6V12.7z M26.9,11.9c0-1.6-0.3-2.8-0.9-3.6s-1.4-1.3-2.5-1.3c-1.1,0-1.9,0.4-2.5,1.3s-0.9,2-0.9,3.5v0.8    c0,1.6,0.3,2.8,0.9,3.6s1.5,1.3,2.5,1.3c1.1,0,1.9-0.4,2.5-1.3s0.9-2.1,0.9-3.7V11.9z"/>
		<path class="st1" d="M33.8,14.1v5.3h-2.5V5.2h5.4c1.6,0,2.9,0.4,3.8,1.2c0.9,0.8,1.4,1.9,1.4,3.3c0,1.4-0.5,2.5-1.4,3.3    s-2.2,1.2-3.8,1.2H33.8z M33.8,12.1h3c0.9,0,1.5-0.2,2-0.6s0.7-1,0.7-1.8c0-0.8-0.2-1.4-0.7-1.8c-0.5-0.5-1.1-0.7-1.9-0.7h-3V12.1    z"/>
		<path class="st1" d="M48.2,11.9l3.3-6.7h2.7l-4.8,9v5.2H47v-5.2l-4.8-9H45L48.2,11.9z"/>
	</g>
</svg>