<?xml version="1.0" encoding="utf-8"?>
<!-- Generator: Adobe Illustrator 22.0.1, SVG Export Plug-In . SVG Version: 6.00 Build 0)  -->
<svg version="1.1" id="레이어_1" xmlns="http://www.w3.org/2000/svg" xmlns:xlink="http://www.w3.org/1999/xlink" x="0px"
	 y="0px" viewBox="0 0 332.8 53.5" style="enable-background:new 0 0 332.8 53.5;" xml:space="preserve">
<style type="text/css">
	.st0{fill:#FFFFFF;}
</style>
<g>
	<path class="st0" d="M35.3,8.3c0,0-5.1-1.1-11.6,6.5c-4.4,4.8-9.2,14.5-14,20.8c-4.4,5.8-8.2,1.8-8.2,0.1c-0.1-2,1.4-2.5,1.4-2.5
		s3.3,0.3,3.5-2c0-0.8-0.8-1.4-1.5-1.4C3,29.8-0.2,32,0,35.9c0.1,3.1,3.1,4.4,5.9,4.2c3-0.3,6.6-2.4,11.5-8.3
		c3.9-4.7,7.9-12.7,8.4-13.3C26,18.1,31.4,9.4,35.3,8.3z"/>
	<path class="st0" d="M19.2,15.2c2.1-1.9,4.8-6.9,4.8-6.9h-1c-4.3,7.8-12.6,8.1-11.5,3.9c1.3-5.2,5.9-7.7,10.8-8.5
		c4.5-0.8,14.8,4.6,16.2,4.5c0.8-1.5,2.1-2.8,3-3.6c-2.8-1.5-10.8-4.3-17-3.9C16.7,1.2,8.4,8.9,8.4,15.8
		C8.4,19.2,14.2,19.7,19.2,15.2z"/>
	<path class="st0" d="M56.8,19.6C52.3,18.7,44,25,41.2,34.4c-0.9,0.8-2.2,1.6-3.3,1.9c-2.7,0.5-2.7-0.5-2.2-1.4
		c2.9-5.3,4.5-6.8,7.2-12.1c1-1.8-1.1-5.5-7.4-0.8c-0.1,0.1-0.5,0-0.5,0c0.1,0,8.6-5.6,13.3-11.7c-1.2,0.4-2.2,0.4-2.2,0.4
		c-0.4,0.7-5.1,5.6-8.8,7.8c0,0,7.8-14,13-16.8c0.5-0.3,1.6,0.4,0.6,2.1c1.2-0.1,1.8-0.5,1.8-0.5c0.4-0.9,0.4-1.3,0.2-1.8
		C50.3-5,37,11.9,33.8,16.7c-0.6,1-14.5,22.5-14.5,22.7h4.8c11-17.5,10.8-15.8,13-17c0.3-0.3,1.1,0.3,0.8,1
		c-0.3,1.1-6.9,10.8-7.5,13.9c-0.2,1.2,0.7,2.8,3.6,2.2c3.2-0.6,6.5-2.6,7.1-3c-0.2,1.8,5.8,8.1,15.1-5.6h-1.3c-7.7,9.5-9,4-8.4,3.5
		c4.7-3.6,10.4-7.2,11.8-12.6C58.5,21,57.7,19.8,56.8,19.6z M57.1,21.9c-2.2,4.2-5.4,7.4-9.8,9.8c1.9-5,4.9-8.8,8.3-10.7
		C56.6,20.4,57.5,21,57.1,21.9z"/>
	<path class="st0" d="M44.8,9.7c4.9,0.8,13.9-5.8,14.9-8.8C56.2,3.5,53.6,5,47.8,5.6C46.4,7.3,46.1,7.7,44.8,9.7z"/>
	<path class="st0" d="M119.6,26.3c-0.3,0.2-0.9-0.5-0.4-1.3c3.3-5.8,7.9-13.9,8.3-14.6h-3.9c-0.3,0.3-0.8,0.8-0.9,0.8
		c0,0-1-1.3-3.4-0.7c-3.8,1-6.5,5-13,13.3c-2,2.5-3.3,3-4.8,3.4c-1.9,0.4-2.4-2-1.8-3.6c2.5-7.2,7-11.3,8.7-11.5
		c1.1-0.1,1.2,1,1.2,1.4c-1.3,0.1-2.6,1-2.7,2c-0.1,0.8-0.4,1.8,1,1.9c2.5,0.1,5-6.6,0.6-7.2c-5.1-0.8-8.6,6.9-12.6,7.3
		c0.9-1.7,1.2-3.1,1.1-5.1c-0.2-1.9-2.9-2.5-4.6-1.8c-6.3,2.9-11.7,11.1-11,16.9c0.2,1.7,1.3,2.9,3.3,2.6
		c5.7-0.9,10.6-10.9,10.6-10.9c0.7-0.2,0.8,0,1.9-0.4c-7.5,15.5,5.5,12.3,9.7,6.3c-1.1,9.5,6.7,2.9,7.2,2.3c0.2,2.2,1.6,3.8,5.1,1.6
		c3.9-2.6,7.2-8.7,7.2-8.9l-1,0.1C124.1,22.4,122.1,24.9,119.6,26.3z M88.6,25.7c-2,1.5-2.9-0.6-2.6-2c0.8-3,2.5-5.7,3.9-7.2
		c1.1,1.6,1.5,2.1,3.9,2.7C92.3,22,91.2,23.8,88.6,25.7z M94.2,17.9c-1.5-0.2-2.9-1-2.8-2.6c0-0.6,0.7-2.6,2.1-2.9
		C97.4,11.5,95.4,16.6,94.2,17.9z M112.4,26.1c-1,0.2-0.9-1.2-0.7-1.7c1.5-4.2,5.7-10.9,8.8-12.1c0.4-0.2,1.4-0.2,1,0.7
		C120.1,16.3,114.5,25.8,112.4,26.1z"/>
	<path class="st0" d="M102.6,33.3c-7.3,1.3-12.6,3.2-18.4,4.2c-21,3.6-8.7-26.7,7.4-34.6c2.6-1.3,3.7,0.4,3.1,1.5
		c-1.1,0.2-2.9,0.5-2.8,3c0.1,2,3.6,1.3,4.2-3c0.3-2.9-1.7-4.4-4.5-3.8C78.7,3,65.8,21.5,67.8,30.6c0.8,4.8,1.9,7.9,8.5,9.1
		c5.2,1,12.2-2.7,19.6-3.4c5-0.4,9.4-0.1,12.5,3.7c3.1-5.3,14-0.5,14-0.5S115.7,31,102.6,33.3z"/>
	<path class="st0" d="M131.8,13.8c0.4,0,1.4-2,2.1-3.4c-2,0-2.4,0.2-3.7,0.1c-0.9,1.4-1.2,1.8-1.9,3.1
		C128,14.1,130.1,13.8,131.8,13.8z"/>
	<path class="st0" d="M188.9,19.8c-0.9,0.1-2.6-0.1-3.8,0c-0.3,0.4-0.9,1-0.9,1c-0.6-0.7-2.3-1.4-3.6-0.9c-6,2.2-10.9,12.2-13.2,15
		c-2.4,3-3,0.2-2.8-0.6c1-3.8,0.9-3.7,2-6.4c11.1-8.1,16.1-16.1,16.1-16.1l-1.3,0.1c-12.2,14-12.8,12.6-12.8,12.6
		c9.8-19,17-22.3,17-22.3c0.3,0,0.6,0.3,0.6,0.7c0,1.1-0.9,2.3-0.9,2.4c1-0.1,1.4-0.2,1.4-0.6c0.3-0.7,0.6-1.7,0.6-2.3
		c0-1.7-1.4-1.9-1.7-1.9c-3.7,0.1-16.7,11.4-23.1,26.6c-0.4,0.8-2.3,0.8-2.3,0.8c0.2-0.5,1.2-2.5,1.3-4.2c0.2-3.4-1.7-4.2-3.7-3.8
		c-4.1,0.7-11.4,8.5-12.2,15.6c-0.4,2.7,1.4,4.5,3.4,4c5.9-1.4,9.8-9.5,10.4-10.1h2.2c0,0-2.1,4.9-1.5,8.1c0.5,3.1,4.9,2.3,8.1-1.7
		c0,7.2,6.7,1.8,7.2,1.1h0.4c1.3,7.2,10.2-2.7,11.9-7.2c-0.8,0-0.8,0-0.8,0c-2.9,4.6-3.3,4.5-5.5,6.1c-0.3,0.2-1-0.3-0.5-1.1
		C184.5,28.1,189,20.2,188.9,19.8z M154,34.9c-5,3.7-3.7-4.1,0.5-8.5c0,0,0.6,2,3.8,2.9C157.7,30.1,155.9,33.5,154,34.9z
		 M158.8,27.8c0,0-2.7-0.2-2.8-2.8c0-1.6,1.4-3.2,2.9-3.2c1,0,1.3,0.9,1.3,1.8C160.2,25.3,159,27.1,158.8,27.8z M177.1,33.5
		c-2.1,3.1-4.1,3.5-3.5,0.6c0.8-4.4,6.6-11.1,7.9-11.8c0.8-0.5,2.3-0.3,1.7,0.8C180.6,27.5,179.7,29.6,177.1,33.5z"/>
	<path class="st0" d="M182.1,6.9c-0.8,0-4,3.9-4,3.9c12.4,0.5,17.7-10.1,17.7-10.1C186.4,8.3,182,7,182.1,6.9z"/>
	<path class="st0" d="M145.3,19.9c-7.2-0.2-10,10.4-9.9,12c0,0,2.8-3.3,5.1-3.6c0.4-2.8,2.1-5.5,3.8-6.3c1.7-0.9,1.9,1,1.9,1.7
		c0.1,4.9-6.4,13.7-11.1,12.8c-10.1-2,7-31,19.6-34.2c0.6-0.2,1.7,0.1,1.7,0.1c-5.9,3.4-8.3,8.8-8.6,10.2c-0.7,3.2,1.1,5.6,5.3,2.6
		c4.8-3.5,5.9-9.9,5.8-12c3.5-1.7,12.3,5.2,14,5.2c0.7-0.7,2.3-2.6,3.1-3.2c-2.2-1.2-9.8-6.9-18.1-3.6c-0.6-0.7-1.6-1.1-3.1-1
		c-14.7,0.9-28.7,23.3-28,32c0.6,8.6,9.3,10.4,17.6-0.4C147.7,28,149.6,20,145.3,19.9z M151.1,15c-2.4,0.9-2.3-0.3-2.4-0.9
		c-0.1-2.5,4.7-9.3,8.8-10.3C158,8.6,153.2,14.2,151.1,15z"/>
	<path class="st0" d="M215.1,19.7c-7.7,1.2-9,12.1-9,12.1c3.7-4.1,4.8-3.1,5.4-3.6c0.3-0.1,1.4-5.6,3.8-6.2c2.2-0.5,2.6,0.6,2.5,1.6
		c-0.5,7-7.5,13.2-9.9,13.4c-13.8,1.3,1.5-27.3,15.1-33.3c2.1-0.9,4.3-1.3,3.8,1.3c-1.4-0.3-2.9,1.2-2.9,2.8c0,1,1.2,1.9,2.5,0.6
		c3.6-3.7,1.1-6.8-0.6-7c-10.9-1.1-27.1,17.4-28.2,30.1c-0.3,3.8,2.4,12.8,13,5.4C216.5,32.8,223.1,18.5,215.1,19.7z"/>
	<path class="st0" d="M328.6,19.8c-5.3,9-7.1,13.6-13.5,17.5c-1.2,0.6-1.2-0.8-1-1.1c1.6-2.7,9.9-16.4,9.9-16.4h-4.2
		c-5,9.4-10,15.2-13.5,16.2c-0.3,0.1-0.9-0.1-0.9-0.7c0-0.5,6.8-11.7,6.8-11.7c0.3-0.8,0.7-2.9-0.6-3.5c-2.8-1.1-6.5,2.3-6.8,2.3
		c1-1.8,1.3-2.2,1.3-2.4h-4c-0.9,0.9-7.1,12.8-13,16.1c-0.4,0.2-1.4-0.1-0.6-1.7c1.5-2.8,8.1-14.3,8.1-14.4h-3.9
		c-0.5,0.8-0.3,0.8-0.6,0.5c-0.9-0.8-1.5-1-2.5-0.9c-6.3,0.3-9.1,11.2-19.1,16.2c0-0.1,5.8-5.4,7.5-12.6c0.3-1.7,0-3.9-2.8-3.5
		c-1.7,0.3-2.7,1-4.1,2c0,0,0.8-1.5,0.8-1.7h-4.2c0,0.1-3.3,5.7-5.7,8.9c-3.2,4.7-7.6,7.2-8,7.2c-0.3,0-1,0.1-1-0.7
		c0-1.2,7.2-11.6,6.8-13.8c-1-5.3-7.1,0.4-8.3,1.3c1.4-7-7.7-0.7-7.7-0.7c0.4-1,1.2-2.2,1.2-2.2c-1,0-1.4,0-1.5,0c0,0,0,0-0.1,0
		c-0.2,0-0.9,0-2.8,0c-3.4,7.1-8.7,7.1-8.7,7.1s0.8-2.3,0.9-3.8c0.1-2.6-1-3.5-2.8-3.8c-3.8-0.6-12.7,8-13.3,16.5
		c0,2,1.1,4.1,3.9,3.4c5.8-1.6,10.3-11.1,10.8-11.2c3.6-0.6,6-2.2,6-2.2s-5.8,10.3-7.6,13.5h4.3c1.8-3.2,7.4-15.9,12.4-17.2
		c0.5,0,0.6-0.1,0.9,0.6L238,39.6h3.9c1.5-2.3,4.9-8.2,5.9-9.8c3.5-5.6,5.5-6.9,6.5-7.2c1-0.2,1.1,0.1,1.1,0.5
		c0,1.8-7,11.2-7.1,13.9c-0.1,3.2,2.8,2.6,3.3,2.5c3.3-1,6.8-4.8,7.3-4.9l-10.4,18.9c1.2-0.2,3.5-0.2,4.1-0.2c1.1-1.9,0.2-0.8,4.1-7
		c0.4-0.5,0.3-0.6,4.4-7.7c3.9,4.7,15.1-5.7,15.6-5.8c0,0-2.9,5.8,1.4,6.8c1.5,0.4,5.2-3,5.2-3c-0.7,5.9,6.2,1.7,9.1-1.3l-2.5,4.3
		c0,0,3.8,0,4.4,0c1.8-2.7,9-17.1,12.8-17c0.4,0,0.6,0.2,0.6,0.6c0,1.6-7.1,10.7-7.2,13.7c0,7.7,10.6-2.5,10.6-2.5
		c-1,2.1-1.1,3.1-1.1,3.1c0.5,5.5,8,0.3,8,0.3l-8.8,15.1c1.5-0.1,1.3,0.2,4.1,0c1.9-3.5,19.5-33.1,19.5-33.1H328.6z M224,35.5
		c-1.8,0.4-1.9-0.4-2-1.4c-0.2-2,2.9-7.8,4.1-8.6c0.5,0.5,1.1,2,4,2.8C230.1,28.3,226.5,35,224,35.5z M230.8,27.3
		c0,0-3.4-0.3-3.2-2.8c0-2.1,1.7-3.1,2.8-3.1c0.1,0,1.5,0.4,1.5,2.1C231.9,24.9,231.3,26.1,230.8,27.3z M265.5,37
		c-2.5,2.3-3,0.2-3-0.4c0-0.4,6.5-12.3,8-12.7c0.1-0.4,1-0.6,1.6-0.6c0.8,0,1.2,0.6,1.2,1.2C273.3,25.6,269.3,34.3,265.5,37z
		 M283.9,34.1c-1,1.4-3.1,2.8-2.8,0.7c0.7-5.2,6.1-11.3,7.8-12.6c1.8-1.3,1.9-0.4,1.7,0C290,23.9,288.1,28.1,283.9,34.1z"/>
</g>
</svg>
